<svg xmlns="http://www.w3.org/2000/svg" width="116.167" height="40.658" viewBox="0 0 116.167 40.658">
  <g id="acondicionador-de-aire" transform="translate(0 -29.069)">
    <path id="Path_296" data-name="Path 296" d="M9.681,120.113h96.806a9.681,9.681,0,0,1,9.681,9.681v21.3a9.68,9.68,0,0,1-9.681,9.681H9.681A9.68,9.68,0,0,1,0,151.091v-21.3A9.681,9.681,0,0,1,9.681,120.113Zm0,0" transform="translate(0 -91.044)" fill="#2980b9"/>
    <g id="Group_131" data-name="Group 131" transform="translate(13.553 60.047)">
      <path id="Path_297" data-name="Path 297" d="M363.361,250.049v3.872H344v-5.808h17.425A1.936,1.936,0,0,1,363.361,250.049Zm0,0" transform="translate(-274.3 -248.113)" fill="#002f2f"/>
      <path id="Path_298" data-name="Path 298" d="M248,248.113h19.361v5.808H248Zm0,0" transform="translate(-201.533 -248.113)" fill="#002f2f"/>
      <path id="Path_299" data-name="Path 299" d="M152,248.113h19.361v5.808H152Zm0,0" transform="translate(-128.767 -248.113)" fill="#002f2f"/>
      <path id="Path_300" data-name="Path 300" d="M75.361,248.113v5.808H56v-3.872a1.936,1.936,0,0,1,1.936-1.936Zm0,0" transform="translate(-56 -248.113)" fill="#002f2f"/>
    </g>
    <path id="Path_304" data-name="Path 304" d="M221.553,203.985H209.936a1.936,1.936,0,0,1,0-3.872h11.617a1.936,1.936,0,0,1,0,3.872Zm0,0" transform="translate(-157.661 -151.683)" fill="#b3b3b3"/>
    <path id="Path_305" data-name="Path 305" d="M131,232.113H45.808A5.826,5.826,0,0,0,40,237.921v7.744h96.806v-7.744A5.826,5.826,0,0,0,131,232.113Zm-87.125,9.681v-3.872a1.936,1.936,0,0,1,1.936-1.936H63.233v5.808Zm23.233,0v-5.808H86.467v5.808Zm23.233,0v-5.808H109.7v5.808Zm23.233,0v-5.808H131a1.936,1.936,0,0,1,1.936,1.936v3.872Zm0,0" transform="translate(-30.319 -175.939)" fill="#e6e6e6"/>
  </g>
</svg>
