<svg xmlns="http://www.w3.org/2000/svg" width="128.076" height="242.432" viewBox="0 0 128.076 242.432">
  <g id="Grupo_131" data-name="Grupo 131" transform="translate(1652.369 -871.568)">
    <g id="puerta" transform="translate(-1728.016 932.205)">
      <path id="Trazado_129" data-name="Trazado 129" d="M213.357,171H108.886V2.73A2.73,2.73,0,0,1,111.616,0h99.01a2.73,2.73,0,0,1,2.73,2.73V171h0Z" transform="translate(-21.437)" fill="#0072a2"/>
      <path id="Trazado_130" data-name="Trazado 130" d="M373.151,0H360.888a2.731,2.731,0,0,1,2.73,2.73V171h12.263V2.73A2.731,2.731,0,0,0,373.151,0Z" transform="translate(-183.961)" fill="#006289"/>
      <path id="Trazado_131" data-name="Trazado 131" d="M144.1,191.459V34.805a3.075,3.075,0,0,1,3.075-3.075h73.31a3.075,3.075,0,0,1,3.075,3.075V191.459Z" transform="translate(-44.151 -20.464)" fill="#979797"/>
      <path id="Trazado_132" data-name="Trazado 132" d="M342.7,31.73h-9.1a3.075,3.075,0,0,1,3.075,3.075V191.459h9.1V34.805A3.076,3.076,0,0,0,342.7,31.73Z" transform="translate(-166.366 -20.464)" fill="#767474"/>
      <g id="Grupo_49" data-name="Grupo 49" transform="translate(110.287 21.913)">
        <path id="Trazado_133" data-name="Trazado 133" d="M195.945,101.319h-20.87a1.868,1.868,0,0,1-1.868-1.868V63.583a1.868,1.868,0,0,1,1.868-1.868h20.87a1.868,1.868,0,0,1,1.868,1.868V99.45A1.868,1.868,0,0,1,195.945,101.319Z" transform="translate(-173.206 -61.715)" fill="#f7f9f9"/>
        <path id="Trazado_134" data-name="Trazado 134" d="M292.23,101.319h-20.87a1.868,1.868,0,0,1-1.868-1.868V63.583a1.868,1.868,0,0,1,1.868-1.868h20.87a1.868,1.868,0,0,1,1.868,1.868V99.45A1.869,1.869,0,0,1,292.23,101.319Z" transform="translate(-235.303 -61.715)" fill="#f7f9f9"/>
        <path id="Trazado_135" data-name="Trazado 135" d="M195.945,241.109h-20.87a1.868,1.868,0,0,1-1.868-1.868V203.374a1.868,1.868,0,0,1,1.868-1.868h20.87a1.868,1.868,0,0,1,1.868,1.868v35.867A1.868,1.868,0,0,1,195.945,241.109Z" transform="translate(-173.206 -151.871)" fill="#f7f9f9"/>
        <path id="Trazado_136" data-name="Trazado 136" d="M292.23,241.109h-20.87a1.868,1.868,0,0,1-1.868-1.868V203.374a1.868,1.868,0,0,1,1.868-1.868h20.87a1.868,1.868,0,0,1,1.868,1.868v35.867A1.869,1.869,0,0,1,292.23,241.109Z" transform="translate(-235.303 -151.871)" fill="#f7f9f9"/>
        <path id="Trazado_137" data-name="Trazado 137" d="M195.945,380.9h-20.87a1.868,1.868,0,0,1-1.868-1.868V343.164a1.868,1.868,0,0,1,1.868-1.868h20.87a1.868,1.868,0,0,1,1.868,1.868v35.867A1.868,1.868,0,0,1,195.945,380.9Z" transform="translate(-173.206 -242.025)" fill="#f7f9f9"/>
        <path id="Trazado_138" data-name="Trazado 138" d="M292.23,380.9h-20.87a1.868,1.868,0,0,1-1.868-1.868V343.164a1.868,1.868,0,0,1,1.868-1.868h20.87a1.868,1.868,0,0,1,1.868,1.868v35.867A1.869,1.869,0,0,1,292.23,380.9Z" transform="translate(-235.303 -242.025)" fill="#f7f9f9"/>
      </g>
      <g id="Grupo_50" data-name="Grupo 50" transform="translate(123.921 21.913)">
        <path id="Trazado_139" data-name="Trazado 139" d="M316.992,61.715h-9.1a1.868,1.868,0,0,1,1.868,1.868V99.45a1.868,1.868,0,0,1-1.868,1.868h9.1a1.868,1.868,0,0,0,1.868-1.868V63.583A1.868,1.868,0,0,0,316.992,61.715Z" transform="translate(-273.7 -61.715)" fill="#e4e4e4"/>
        <path id="Trazado_140" data-name="Trazado 140" d="M316.992,201.506h-9.1a1.868,1.868,0,0,1,1.868,1.868v35.867a1.868,1.868,0,0,1-1.868,1.868h9.1a1.868,1.868,0,0,0,1.868-1.868V203.374A1.868,1.868,0,0,0,316.992,201.506Z" transform="translate(-273.7 -151.871)" fill="#e4e4e4"/>
        <path id="Trazado_141" data-name="Trazado 141" d="M316.992,341.3h-9.1a1.868,1.868,0,0,1,1.868,1.868v35.867a1.868,1.868,0,0,1-1.868,1.868h9.1a1.868,1.868,0,0,0,1.868-1.868V343.164A1.868,1.868,0,0,0,316.992,341.3Z" transform="translate(-273.7 -242.025)" fill="#e4e4e4"/>
        <path id="Trazado_142" data-name="Trazado 142" d="M220.709,61.715h-9.1a1.868,1.868,0,0,1,1.868,1.868V99.45a1.868,1.868,0,0,1-1.868,1.868h9.1a1.868,1.868,0,0,0,1.868-1.868V63.583A1.868,1.868,0,0,0,220.709,61.715Z" transform="translate(-211.604 -61.715)" fill="#e4e4e4"/>
        <path id="Trazado_143" data-name="Trazado 143" d="M220.709,201.506h-9.1a1.868,1.868,0,0,1,1.868,1.868v35.867a1.868,1.868,0,0,1-1.868,1.868h9.1a1.868,1.868,0,0,0,1.868-1.868V203.374A1.868,1.868,0,0,0,220.709,201.506Z" transform="translate(-211.604 -151.871)" fill="#e4e4e4"/>
        <path id="Trazado_144" data-name="Trazado 144" d="M220.709,341.3h-9.1a1.868,1.868,0,0,1,1.868,1.868v35.867A1.868,1.868,0,0,1,211.6,380.9h9.1a1.868,1.868,0,0,0,1.868-1.868V343.164A1.868,1.868,0,0,0,220.709,341.3Z" transform="translate(-211.604 -242.025)" fill="#e4e4e4"/>
      </g>
      <path id="Trazado_145" data-name="Trazado 145" d="M202.485,490.546H76.884a1.237,1.237,0,0,1-1.237-1.237v-9.337a1.237,1.237,0,0,1,1.237-1.237h125.6a1.237,1.237,0,0,1,1.237,1.237v9.337A1.238,1.238,0,0,1,202.485,490.546Z" transform="translate(0 -308.751)" fill="#d96b37"/>
      <path id="Trazado_146" data-name="Trazado 146" d="M412.841,478.734H401.816v11.812h11.025a1.237,1.237,0,0,0,1.237-1.237v-9.337A1.237,1.237,0,0,0,412.841,478.734Z" transform="translate(-210.357 -308.75)" fill="#b14418"/>
    </g>
    <g id="candado_1_" data-name="candado (1)" transform="translate(-1682.693 871.568)">
      <path id="Trazado_242" data-name="Trazado 242" d="M109.4,34.191h0V20.781a14.459,14.459,0,1,1,28.912,0V34.191h5.906V20.781a20.366,20.366,0,1,0-40.723,0V34.191H109.4Z" transform="translate(-29.904)" fill="#ff4d4a"/>
      <path id="Trazado_243" data-name="Trazado 243" d="M271.762,20.781V34.191h6.44V20.781C278.2,9.322,268.242,0,256,0V6.027C264.691,6.027,271.762,12.646,271.762,20.781Z" transform="translate(-163.883)" fill="#cd4543"/>
      <path id="Trazado_244" data-name="Trazado 244" d="M117.106,276.3H70.81a2.313,2.313,0,0,1-2.309-2.317V241.437a2.313,2.313,0,0,1,2.309-2.317h46.3a2.313,2.313,0,0,1,2.309,2.317v32.549A2.313,2.313,0,0,1,117.106,276.3Z" transform="translate(-0.001 -205.872)" fill="#acd0ff"/>
      <path id="Trazado_245" data-name="Trazado 245" d="M117.1,239.12h-2.662V269a2.313,2.313,0,0,1-2.309,2.317H68.5v2.672a2.313,2.313,0,0,0,2.309,2.317h46.3a2.313,2.313,0,0,0,2.309-2.317V241.437A2.313,2.313,0,0,0,117.1,239.12Z" transform="translate(0 -205.872)" fill="#616161"/>
      <g id="Grupo_65" data-name="Grupo 65" transform="translate(75.165 40.304)">
        <path id="Trazado_246" data-name="Trazado 246" d="M162.635,295.279H129.749a2.274,2.274,0,0,1-2.349-2.19h0a2.274,2.274,0,0,1,2.349-2.19h32.886a2.274,2.274,0,0,1,2.349,2.19h0A2.274,2.274,0,0,1,162.635,295.279Z" transform="translate(-127.4 -290.898)" fill="#676767"/>
        <path id="Trazado_247" data-name="Trazado 247" d="M162.635,363.866H129.749a2.274,2.274,0,0,1-2.349-2.19h0a2.274,2.274,0,0,1,2.349-2.19h32.886a2.274,2.274,0,0,1,2.349,2.19h0A2.274,2.274,0,0,1,162.635,363.866Z" transform="translate(-127.4 -350.139)" fill="#676767"/>
        <path id="Trazado_248" data-name="Trazado 248" d="M162.635,432.453H129.749a2.274,2.274,0,0,1-2.349-2.19h0a2.274,2.274,0,0,1,2.349-2.19h32.886a2.274,2.274,0,0,1,2.349,2.19h0A2.274,2.274,0,0,1,162.635,432.453Z" transform="translate(-127.4 -409.38)" fill="#676767"/>
      </g>
    </g>
  </g>
</svg>
