<svg id="puerta" xmlns="http://www.w3.org/2000/svg" width="82.17" height="116.636" viewBox="0 0 82.17 116.636">
  <path id="Path_129" data-name="Path 129" d="M175.912,109.707H108.886V1.752A1.752,1.752,0,0,1,110.638,0H174.16a1.752,1.752,0,0,1,1.752,1.752V109.707h0Z" transform="translate(-101.314)" fill="#0072a2"/>
  <path id="Path_130" data-name="Path 130" d="M368.755,0h-7.867a1.752,1.752,0,0,1,1.752,1.752V109.707h7.867V1.752A1.752,1.752,0,0,0,368.755,0Z" transform="translate(-295.909)" fill="#006289"/>
  <path id="Path_131" data-name="Path 131" d="M144.1,134.208V33.7a1.973,1.973,0,0,1,1.973-1.973h47.034a1.973,1.973,0,0,1,1.973,1.973V134.208Z" transform="translate(-128.51 -24.502)" fill="#979797"/>
  <path id="Path_132" data-name="Path 132" d="M339.444,31.73h-5.838a1.973,1.973,0,0,1,1.973,1.973V134.208h5.838V33.7A1.973,1.973,0,0,0,339.444,31.73Z" transform="translate(-274.842 -24.502)" fill="#767474"/>
  <g id="Group_49" data-name="Group 49" transform="translate(22.224 14.059)">
    <path id="Path_133" data-name="Path 133" d="M187.795,87.124H174.4a1.2,1.2,0,0,1-1.2-1.2V62.914a1.2,1.2,0,0,1,1.2-1.2h13.39a1.2,1.2,0,0,1,1.2,1.2V85.925A1.2,1.2,0,0,1,187.795,87.124Z" transform="translate(-173.206 -61.715)" fill="#f7f9f9"/>
    <path id="Path_134" data-name="Path 134" d="M284.08,87.124H270.69a1.2,1.2,0,0,1-1.2-1.2V62.914a1.2,1.2,0,0,1,1.2-1.2h13.39a1.2,1.2,0,0,1,1.2,1.2V85.925A1.2,1.2,0,0,1,284.08,87.124Z" transform="translate(-247.557 -61.715)" fill="#f7f9f9"/>
    <path id="Path_135" data-name="Path 135" d="M187.795,226.915H174.4a1.2,1.2,0,0,1-1.2-1.2V202.7a1.2,1.2,0,0,1,1.2-1.2h13.39a1.2,1.2,0,0,1,1.2,1.2v23.011A1.2,1.2,0,0,1,187.795,226.915Z" transform="translate(-173.206 -169.661)" fill="#f7f9f9"/>
    <path id="Path_136" data-name="Path 136" d="M284.08,226.915H270.69a1.2,1.2,0,0,1-1.2-1.2V202.7a1.2,1.2,0,0,1,1.2-1.2h13.39a1.2,1.2,0,0,1,1.2,1.2v23.011A1.2,1.2,0,0,1,284.08,226.915Z" transform="translate(-247.557 -169.661)" fill="#f7f9f9"/>
    <path id="Path_137" data-name="Path 137" d="M187.795,366.7H174.4a1.2,1.2,0,0,1-1.2-1.2V342.495a1.2,1.2,0,0,1,1.2-1.2h13.39a1.2,1.2,0,0,1,1.2,1.2v23.011A1.2,1.2,0,0,1,187.795,366.7Z" transform="translate(-173.206 -277.606)" fill="#f7f9f9"/>
    <path id="Path_138" data-name="Path 138" d="M284.08,366.7H270.69a1.2,1.2,0,0,1-1.2-1.2V342.495a1.2,1.2,0,0,1,1.2-1.2h13.39a1.2,1.2,0,0,1,1.2,1.2v23.011A1.2,1.2,0,0,1,284.08,366.7Z" transform="translate(-247.557 -277.606)" fill="#f7f9f9"/>
  </g>
  <g id="Group_50" data-name="Group 50" transform="translate(30.972 14.059)">
    <path id="Path_139" data-name="Path 139" d="M313.728,61.715h-5.841a1.2,1.2,0,0,1,1.2,1.2V85.925a1.2,1.2,0,0,1-1.2,1.2h5.841a1.2,1.2,0,0,0,1.2-1.2V62.914A1.2,1.2,0,0,0,313.728,61.715Z" transform="translate(-285.953 -61.715)" fill="#e4e4e4"/>
    <path id="Path_140" data-name="Path 140" d="M313.728,201.506h-5.841a1.2,1.2,0,0,1,1.2,1.2v23.011a1.2,1.2,0,0,1-1.2,1.2h5.841a1.2,1.2,0,0,0,1.2-1.2V202.7A1.2,1.2,0,0,0,313.728,201.506Z" transform="translate(-285.953 -169.661)" fill="#e4e4e4"/>
    <path id="Path_141" data-name="Path 141" d="M313.728,341.3h-5.841a1.2,1.2,0,0,1,1.2,1.2v23.011a1.2,1.2,0,0,1-1.2,1.2h5.841a1.2,1.2,0,0,0,1.2-1.2V342.495A1.2,1.2,0,0,0,313.728,341.3Z" transform="translate(-285.953 -277.606)" fill="#e4e4e4"/>
    <path id="Path_142" data-name="Path 142" d="M217.445,61.715H211.6a1.2,1.2,0,0,1,1.2,1.2V85.925a1.2,1.2,0,0,1-1.2,1.2h5.841a1.2,1.2,0,0,0,1.2-1.2V62.914A1.2,1.2,0,0,0,217.445,61.715Z" transform="translate(-211.604 -61.715)" fill="#e4e4e4"/>
    <path id="Path_143" data-name="Path 143" d="M217.445,201.506H211.6a1.2,1.2,0,0,1,1.2,1.2v23.011a1.2,1.2,0,0,1-1.2,1.2h5.841a1.2,1.2,0,0,0,1.2-1.2V202.7A1.2,1.2,0,0,0,217.445,201.506Z" transform="translate(-211.604 -169.661)" fill="#e4e4e4"/>
    <path id="Path_144" data-name="Path 144" d="M217.445,341.3H211.6a1.2,1.2,0,0,1,1.2,1.2v23.011a1.2,1.2,0,0,1-1.2,1.2h5.841a1.2,1.2,0,0,0,1.2-1.2V342.495A1.2,1.2,0,0,0,217.445,341.3Z" transform="translate(-211.604 -277.606)" fill="#e4e4e4"/>
  </g>
  <path id="Path_145" data-name="Path 145" d="M157.023,486.313H76.441a.794.794,0,0,1-.794-.794v-5.99a.794.794,0,0,1,.794-.794h80.583a.794.794,0,0,1,.794.794v5.99A.794.794,0,0,1,157.023,486.313Z" transform="translate(-75.647 -369.677)" fill="#d96b37"/>
  <path id="Path_146" data-name="Path 146" d="M408.89,478.734h-7.074v7.578h7.074a.794.794,0,0,0,.794-.794v-5.99A.794.794,0,0,0,408.89,478.734Z" transform="translate(-327.513 -369.677)" fill="#b14418"/>
</svg>
