<svg xmlns="http://www.w3.org/2000/svg" width="99" height="186.863" viewBox="0 0 99 186.863">
  <g id="nevera" transform="translate(-113.6)">
    <g id="Grupo_52" data-name="Grupo 52" transform="translate(124.119 180.675)">
      <path id="Trazado_165" data-name="Trazado 165" d="M151.628,471.531a2,2,0,0,1-1.856,1.856h-7.116a2,2,0,0,1-1.856-1.856v-2.475a2,2,0,0,1,1.856-1.856h7.116a2,2,0,0,1,1.856,1.856Z" transform="translate(-140.8 -467.2)" fill="#03263a"/>
      <path id="Trazado_166" data-name="Trazado 166" d="M325.228,471.531a2,2,0,0,1-1.856,1.856h-7.116a2,2,0,0,1-1.856-1.856v-2.475a2,2,0,0,1,1.856-1.856h7.116a2,2,0,0,1,1.856,1.856Z" transform="translate(-247.266 -467.2)" fill="#03263a"/>
    </g>
    <path id="Trazado_167" data-name="Trazado 167" d="M212.6,170.775c0,12.684-10.209,11.447-22.894,11.447H136.494c-12.684,0-22.894,1.238-22.894-11.447V22.894A22.842,22.842,0,0,1,136.494,0h53.213A22.842,22.842,0,0,1,212.6,22.894V170.775Z" transform="translate(0)" fill="#0072a2"/>
    <g id="Grupo_53" data-name="Grupo 53" transform="translate(123.5)">
      <path id="Trazado_168" data-name="Trazado 168" d="M259.866,0H228V182.222h31.866c12.684,0,22.894,1.238,22.894-11.447V22.894A22.842,22.842,0,0,0,259.866,0Z" transform="translate(-193.659)" fill="#006289"/>
      <path id="Trazado_169" data-name="Trazado 169" d="M181.584,108.166,139.509,66.4,139.2,93.625l14.85,14.541Z" transform="translate(-139.2 -40.722)" fill="#006289"/>
      <path id="Trazado_170" data-name="Trazado 170" d="M228.3,296.866v-2.475L139.509,205.6l-.309,27.225,75.488,75.488C222.731,308,228.3,306.147,228.3,296.866Z" transform="translate(-139.2 -126.091)" fill="#006289"/>
    </g>
    <path id="Trazado_171" data-name="Trazado 171" d="M121.334,170.775V22.894A22.842,22.842,0,0,1,144.228,0h-7.734A22.842,22.842,0,0,0,113.6,22.894V170.775c0,12.684,10.209,11.447,22.894,11.447h0C127.831,182.222,121.334,180.675,121.334,170.775Z" transform="translate(0)" fill="#0072a2"/>
    <path id="Trazado_172" data-name="Trazado 172" d="M310.4,471.2h0Z" transform="translate(-120.694 -288.978)" fill="#ff8b00"/>
    <rect id="Rect치ngulo_44" data-name="Rect치ngulo 44" width="99" height="7.425" transform="translate(113.6 64.041)" fill="#03263a"/>
    <g id="Grupo_54" data-name="Grupo 54" transform="translate(113.6 26.297)">
      <rect id="Rect치ngulo_45" data-name="Rect치ngulo 45" width="99" height="3.713" transform="translate(0 41.147)" fill="#053c54"/>
      <path id="Trazado_173" data-name="Trazado 173" d="M140.225,92.131a3.762,3.762,0,0,1-3.713,3.713h0a3.762,3.762,0,0,1-3.712-3.713V71.712A3.762,3.762,0,0,1,136.512,68h0a3.762,3.762,0,0,1,3.713,3.712Z" transform="translate(-125.375 -68)" fill="#053c54"/>
    </g>
    <path id="Trazado_174" data-name="Trazado 174" d="M134.966,68.8a3.8,3.8,0,0,0-2.166,3.4V92.622a3.8,3.8,0,0,0,2.166,3.4,3.8,3.8,0,0,0,2.166-3.4V72.2A3.011,3.011,0,0,0,134.966,68.8Z" transform="translate(-11.775 -42.194)" fill="#055875"/>
    <path id="Trazado_175" data-name="Trazado 175" d="M140.225,228.931a3.762,3.762,0,0,1-3.713,3.713h0a3.762,3.762,0,0,1-3.712-3.713V208.513a3.762,3.762,0,0,1,3.712-3.713h0a3.762,3.762,0,0,1,3.713,3.713Z" transform="translate(-11.775 -125.6)" fill="#053c54"/>
    <path id="Trazado_176" data-name="Trazado 176" d="M134.966,205.6A3.8,3.8,0,0,0,132.8,209v20.419a3.8,3.8,0,0,0,2.166,3.4,3.8,3.8,0,0,0,2.166-3.4V209A2.85,2.85,0,0,0,134.966,205.6Z" transform="translate(-11.775 -126.091)" fill="#055875"/>
    <g id="Grupo_55" data-name="Grupo 55" transform="translate(199.606 50.119)">
      <path id="Trazado_177" data-name="Trazado 177" d="M336.619,130.838a.665.665,0,0,1-.619-.619h0a.665.665,0,0,1,.619-.619h4.641a.665.665,0,0,1,.619.619h0a.665.665,0,0,1-.619.619Z" transform="translate(-336 -129.6)" fill="#acd0ff"/>
      <path id="Trazado_178" data-name="Trazado 178" d="M336.619,141.238a.665.665,0,0,1-.619-.619h0a.665.665,0,0,1,.619-.619h4.641a.665.665,0,0,1,.619.619h0a.665.665,0,0,1-.619.619Z" transform="translate(-336 -135.978)" fill="#acd0ff"/>
      <path id="Trazado_179" data-name="Trazado 179" d="M336.619,150.837a.665.665,0,0,1-.619-.619h0a.665.665,0,0,1,.619-.619h4.641a.665.665,0,0,1,.619.619h0a.665.665,0,0,1-.619.619Z" transform="translate(-336 -141.866)" fill="#acd0ff"/>
      <path id="Trazado_180" data-name="Trazado 180" d="M336.619,432.437a.665.665,0,0,1-.619-.619h0a.665.665,0,0,1,.619-.619h4.641a.665.665,0,0,1,.619.619h0a.665.665,0,0,1-.619.619Z" transform="translate(-336 -314.565)" fill="#acd0ff"/>
      <path id="Trazado_181" data-name="Trazado 181" d="M336.619,442.038a.665.665,0,0,1-.619-.619h0a.665.665,0,0,1,.619-.619h4.641a.665.665,0,0,1,.619.619h0a.665.665,0,0,1-.619.619Z" transform="translate(-336 -320.453)" fill="#acd0ff"/>
      <path id="Trazado_182" data-name="Trazado 182" d="M336.619,452.438a.665.665,0,0,1-.619-.619h0a.665.665,0,0,1,.619-.619h4.641a.665.665,0,0,1,.619.619h0a.665.665,0,0,1-.619.619Z" transform="translate(-336 -326.831)" fill="#acd0ff"/>
    </g>
  </g>
</svg>
