<svg id="idea" xmlns="http://www.w3.org/2000/svg" width="98.536" height="103.965" viewBox="0 0 98.536 103.965">
  <path id="Path_91" data-name="Path 91" d="M138.624,157.1h24.219a1.1,1.1,0,0,0,1.112-1.026,39.245,39.245,0,0,1,8.21-22.432,25.229,25.229,0,0,0,5.392-15.584c0-14.374-12.114-26.015-27.017-25.914-14.71.1-26.676,11.784-26.63,26a25.217,25.217,0,0,0,5.212,15.269,40.308,40.308,0,0,1,8.393,22.66A1.1,1.1,0,0,0,138.624,157.1Z" transform="translate(-101.462 -73.432)" fill="#ffde3e"/>
  <g id="Group_44" data-name="Group 44" transform="translate(39.327 18.71)">
    <path id="Path_92" data-name="Path 92" d="M245.706,92.141c-.8.005-1.6.048-2.382.12,13.592,1.266,24.218,12.33,24.218,25.793a25.229,25.229,0,0,1-5.392,15.584,39.243,39.243,0,0,0-8.209,22.432,1.1,1.1,0,0,1-1.112,1.026h5.181a1.1,1.1,0,0,0,1.112-1.026,39.245,39.245,0,0,1,8.209-22.432,25.23,25.23,0,0,0,5.392-15.584C272.723,103.681,260.609,92.04,245.706,92.141Z" transform="translate(-235.957 -92.141)" fill="#fcd400"/>
    <path id="Path_93" data-name="Path 93" d="M226.207,268.109a1.81,1.81,0,0,0-1.815-.213l-3.3,1.441-3.4-1.448a1.829,1.829,0,0,0-1.538.056l-2.813,1.449-3.819-1.52a1.837,1.837,0,0,0-1.786.253,1.817,1.817,0,0,0-.681,1.665l0,.024,3.347,22.652h3.079l-3.1-20.972,2.474.984a1.522,1.522,0,0,0,1.26-.061l2.913-1.5L220.5,272.4a1.522,1.522,0,0,0,1.206-.006l1.858-.812-3.086,20.888h3.079l3.349-22.671A1.812,1.812,0,0,0,226.207,268.109Z" transform="translate(-207.041 -232.087)" fill="#fc9e00"/>
  </g>
  <g id="Group_45" data-name="Group 45" transform="translate(0)">
    <path id="Path_94" data-name="Path 94" d="M447.732,238.178H438.2a1.523,1.523,0,1,1,0-3.046h9.535a1.523,1.523,0,0,1,0,3.046Z" transform="translate(-350.719 -187.387)" fill="#ffb427"/>
    <path id="Path_95" data-name="Path 95" d="M24.426,238.178H14.891a1.523,1.523,0,1,1,0-3.046h9.535a1.523,1.523,0,1,1,0,3.046Z" transform="translate(-13.368 -187.387)" fill="#ffb427"/>
    <path id="Path_96" data-name="Path 96" d="M389.824,377.98a1.518,1.518,0,0,1-1.077-.446L382,370.791a1.523,1.523,0,0,1,2.154-2.154l6.742,6.743a1.523,1.523,0,0,1-1.077,2.6Z" transform="translate(-306.795 -293.428)" fill="#ffb427"/>
    <path id="Path_97" data-name="Path 97" d="M90.5,78.657a1.518,1.518,0,0,1-1.077-.446l-6.742-6.742a1.523,1.523,0,0,1,2.154-2.154l6.742,6.743a1.523,1.523,0,0,1-1.077,2.6Z" transform="translate(-68.252 -54.885)" fill="#ffb427"/>
    <path id="Path_98" data-name="Path 98" d="M383.081,78.657a1.523,1.523,0,0,1-1.077-2.6l6.742-6.742a1.523,1.523,0,0,1,2.154,2.154l-6.742,6.742A1.518,1.518,0,0,1,383.081,78.657Z" transform="translate(-306.795 -54.884)" fill="#ffb427"/>
    <path id="Path_99" data-name="Path 99" d="M83.759,377.98a1.523,1.523,0,0,1-1.077-2.6l6.742-6.742a1.523,1.523,0,0,1,2.154,2.154l-6.742,6.742A1.518,1.518,0,0,1,83.759,377.98Z" transform="translate(-68.252 -293.427)" fill="#ffb427"/>
    <path id="Path_100" data-name="Path 100" d="M250.023,12.581a1.523,1.523,0,0,1-1.523-1.523V1.523a1.523,1.523,0,1,1,3.046,0v9.535A1.523,1.523,0,0,1,250.023,12.581Z" transform="translate(-200.755 0)" fill="#ffb427"/>
  </g>
  <path id="Path_101" data-name="Path 101" d="M233.594,385.624H219.925a.618.618,0,0,0-.618.618v5.152h14.9v-5.152A.618.618,0,0,0,233.594,385.624Z" transform="translate(-177.49 -307.32)" fill="#d96b37"/>
  <path id="Path_102" data-name="Path 102" d="M271.757,385.624h-4.563v5.769h5.181v-5.152A.618.618,0,0,0,271.757,385.624Z" transform="translate(-215.653 -307.32)" fill="#b14418"/>
  <path id="Path_103" data-name="Path 103" d="M222.459,430.956h0a19.18,19.18,0,0,1-14.269,0h0a5.145,5.145,0,0,1-3.231-4.776V412.034H225.69v14.147A5.145,5.145,0,0,1,222.459,430.956Z" transform="translate(-166.055 -328.368)" fill="#ffb427"/>
  <path id="Path_104" data-name="Path 104" d="M251.025,412.034v14.147a5.145,5.145,0,0,1-3.231,4.776h0a19.169,19.169,0,0,1-4.544,1.2,19.181,19.181,0,0,0,9.725-1.2h0a5.145,5.145,0,0,0,3.231-4.776V412.034Z" transform="translate(-196.571 -328.368)" fill="#ff9d00"/>
  <g id="Group_46" data-name="Group 46" transform="translate(38.904 88.839)">
    <rect id="Rectangle_40" data-name="Rectangle 40" width="20.732" height="2.644" transform="translate(0)" fill="#ff8b00"/>
    <path id="Path_105" data-name="Path 105" d="M225.376,470.046h-20.1a1.318,1.318,0,0,0-.315.039v2.328c0,.08.005.159.009.239a1.319,1.319,0,0,0,.306.037h20.1a1.316,1.316,0,0,0,.306-.037c0-.079.009-.159.009-.239v-2.328A1.313,1.313,0,0,0,225.376,470.046Z" transform="translate(-204.959 -463.439)" fill="#ff8b00"/>
  </g>
  <g id="Group_47" data-name="Group 47" transform="translate(54.444 88.839)">
    <rect id="Rectangle_41" data-name="Rectangle 41" width="5.181" height="2.644" transform="translate(0.01)" fill="#ff6900"/>
    <path id="Path_106" data-name="Path 106" d="M281.5,470.046v2.367c0,.092-.005.184-.01.276h4.876a1.316,1.316,0,0,0,.306-.037c0-.079.009-.159.009-.239v-2.328a1.319,1.319,0,0,0-.315-.039Z" transform="translate(-281.491 -463.439)" fill="#ff6900"/>
  </g>
</svg>
