<svg xmlns="http://www.w3.org/2000/svg" width="100.34" height="105.868" viewBox="0 0 100.34 105.868">
  <g id="idea" transform="translate(-13.368)">
    <path id="Path_91" data-name="Path 91" d="M138.894,158.287h24.662a1.115,1.115,0,0,0,1.132-1.045,39.962,39.962,0,0,1,8.36-22.843,25.691,25.691,0,0,0,5.49-15.869c0-14.638-12.336-26.491-27.512-26.388-14.979.1-27.164,12-27.118,26.472a25.679,25.679,0,0,0,5.307,15.549,41.045,41.045,0,0,1,8.546,23.075A1.116,1.116,0,0,0,138.894,158.287Z" transform="translate(-87.684 -73.089)" fill="#fff" stroke="#b7aeae" stroke-width="1"/>
    <g id="Group_44" data-name="Group 44" transform="translate(53.415 19.052)">
      <path id="Path_92" data-name="Path 92" d="M245.749,92.141c-.818.006-1.626.048-2.425.123,13.841,1.289,24.662,12.556,24.662,26.265A25.69,25.69,0,0,1,262.5,134.4a39.961,39.961,0,0,0-8.36,22.843A1.115,1.115,0,0,1,253,158.286h5.276a1.115,1.115,0,0,0,1.132-1.045,39.964,39.964,0,0,1,8.36-22.843,25.691,25.691,0,0,0,5.49-15.869C273.261,103.892,260.925,92.038,245.749,92.141Z" transform="translate(-235.822 -92.141)" fill="#a7a7a7"/>
      <path id="Path_93" data-name="Path 93" d="M226.558,268.116a1.843,1.843,0,0,0-1.848-.217l-3.359,1.468-3.463-1.475a1.862,1.862,0,0,0-1.566.057l-2.864,1.475-3.889-1.548a1.87,1.87,0,0,0-1.818.258,1.851,1.851,0,0,0-.694,1.7l0,.024,3.408,23.067H213.6l-3.155-21.356,2.519,1a1.55,1.55,0,0,0,1.283-.062l2.966-1.528,3.534,1.505a1.55,1.55,0,0,0,1.228-.006l1.892-.827-3.142,21.27h3.136l3.41-23.086A1.846,1.846,0,0,0,226.558,268.116Z" transform="translate(-207.041 -231.434)" fill="gray"/>
    </g>
    <g id="Group_45" data-name="Group 45" transform="translate(13.368)">
      <path id="Path_94" data-name="Path 94" d="M447.934,238.234h-9.71a1.551,1.551,0,0,1,0-3.1h9.71a1.551,1.551,0,1,1,0,3.1Z" transform="translate(-349.145 -186.513)" fill="none"/>
      <path id="Path_95" data-name="Path 95" d="M24.629,238.234h-9.71a1.551,1.551,0,1,1,0-3.1h9.71a1.551,1.551,0,0,1,0,3.1Z" transform="translate(-13.368 -186.513)" fill="none"/>
      <path id="Path_96" data-name="Path 96" d="M389.975,378.159a1.546,1.546,0,0,1-1.1-.454l-6.866-6.866a1.551,1.551,0,1,1,2.193-2.193l6.866,6.866a1.551,1.551,0,0,1-1.1,2.647Z" transform="translate(-305.426 -292.059)" fill="none"/>
      <path id="Path_97" data-name="Path 97" d="M90.653,78.837a1.546,1.546,0,0,1-1.1-.454L82.69,71.517a1.551,1.551,0,1,1,2.193-2.193l6.866,6.866a1.551,1.551,0,0,1-1.1,2.647Z" transform="translate(-67.996 -54.629)" fill="none"/>
      <path id="Path_98" data-name="Path 98" d="M383.109,78.836a1.551,1.551,0,0,1-1.1-2.647l6.866-6.866a1.551,1.551,0,1,1,2.193,2.193l-6.866,6.866A1.545,1.545,0,0,1,383.109,78.836Z" transform="translate(-305.426 -54.628)" fill="none"/>
      <path id="Path_99" data-name="Path 99" d="M83.787,378.159a1.551,1.551,0,0,1-1.1-2.647l6.866-6.866a1.551,1.551,0,0,1,2.193,2.193L84.884,377.7A1.546,1.546,0,0,1,83.787,378.159Z" transform="translate(-67.996 -292.059)" fill="none"/>
      <path id="Path_100" data-name="Path 100" d="M250.051,12.811A1.551,1.551,0,0,1,248.5,11.26V1.551a1.551,1.551,0,1,1,3.1,0v9.71A1.551,1.551,0,0,1,250.051,12.811Z" transform="translate(-199.881)" fill="none"/>
    </g>
    <path id="Path_101" data-name="Path 101" d="M233.855,385.624H219.936a.629.629,0,0,0-.629.629V391.5h15.177v-5.246A.629.629,0,0,0,233.855,385.624Z" transform="translate(-163.356 -305.887)" fill="#d96b37"/>
    <path id="Path_102" data-name="Path 102" d="M271.84,385.624h-4.646V391.5h5.276v-5.246A.629.629,0,0,0,271.84,385.624Z" transform="translate(-201.341 -305.887)" fill="#b14418"/>
    <path id="Path_103" data-name="Path 103" d="M222.78,431.3h0a19.532,19.532,0,0,1-14.53,0h0a5.239,5.239,0,0,1-3.29-4.863V412.034H226.07V426.44A5.239,5.239,0,0,1,222.78,431.3Z" transform="translate(-151.975 -326.836)" fill="#ffb427"/>
    <path id="Path_104" data-name="Path 104" d="M251.168,412.034V426.44a5.239,5.239,0,0,1-3.29,4.863h0a19.513,19.513,0,0,1-4.627,1.22,19.532,19.532,0,0,0,9.9-1.22h0a5.239,5.239,0,0,0,3.29-4.863V412.034Z" transform="translate(-182.348 -326.836)" fill="#ff9d00"/>
    <g id="Group_46" data-name="Group 46" transform="translate(52.984 90.466)">
      <rect id="Rectangle_40" data-name="Rectangle 40" width="21.112" height="2.692" transform="translate(0)" fill="#ff8b00"/>
      <path id="Path_105" data-name="Path 105" d="M225.749,470.046h-20.47a1.341,1.341,0,0,0-.32.04v2.37c0,.081.006.162.009.243a1.345,1.345,0,0,0,.311.038h20.47a1.345,1.345,0,0,0,.311-.038c0-.081.009-.161.009-.243v-2.37A1.337,1.337,0,0,0,225.749,470.046Z" transform="translate(-204.959 -463.318)" fill="#ff8b00"/>
    </g>
    <g id="Group_47" data-name="Group 47" transform="translate(68.809 90.466)">
      <rect id="Rectangle_41" data-name="Rectangle 41" width="5.276" height="2.692" transform="translate(0.01)" fill="#ff6900"/>
      <path id="Path_106" data-name="Path 106" d="M281.5,470.046v2.411c0,.094-.006.187-.011.281h4.966a1.345,1.345,0,0,0,.311-.038c0-.081.009-.161.009-.243v-2.37a1.343,1.343,0,0,0-.321-.04Z" transform="translate(-281.491 -463.318)" fill="#ff6900"/>
    </g>
  </g>
</svg>
