<svg xmlns="http://www.w3.org/2000/svg" width="103.891" height="116.872" viewBox="0 0 103.891 116.872">
  <g id="Group_130" data-name="Group 130" transform="translate(-1023.273 -19.455)">
    <g id="estufa" transform="translate(1023.273 19.455)">
      <path id="Path_108" data-name="Path 108" d="M51.765,16.5a2.6,2.6,0,0,1,2.6,2.6v2.6a2.6,2.6,0,0,1-2.6,2.6H20.6A2.6,2.6,0,0,1,18,21.7V19.1a2.6,2.6,0,0,1,2.6-2.6H51.765Z" transform="translate(-7.611 -16.501)" fill="#a50000"/>
      <path id="Path_109" data-name="Path 109" d="M72.362,21.7a2.6,2.6,0,0,1-2.6,2.6H38.6A2.6,2.6,0,0,1,36,21.7V19.1a2.6,2.6,0,0,1,2.6-2.6H69.765a2.6,2.6,0,0,1,2.6,2.6Z" transform="translate(21.14 -16.501)" fill="#a50000"/>
      <path id="Path_110" data-name="Path 110" d="M64.376,58.5a2.6,2.6,0,0,1,2.6,2.6v2.6a2.6,2.6,0,0,1-2.6,2.6H43.6a2.6,2.6,0,0,1-2.6-2.6V61.1a2.6,2.6,0,0,1,2.6-2.6Z" transform="translate(29.127 50.582)" fill="#545c66"/>
      <path id="Path_111" data-name="Path 111" d="M40.376,58.5a2.6,2.6,0,0,1,2.6,2.6v2.6a2.6,2.6,0,0,1-2.6,2.6H19.6a2.6,2.6,0,0,1-2.6-2.6V61.1a2.6,2.6,0,0,1,2.6-2.6Z" transform="translate(-9.208 50.582)" fill="#545c66"/>
      <path id="Path_112" data-name="Path 112" d="M112.7,17.5h-93.5A5.21,5.21,0,0,0,14,22.695v98.7a5.21,5.21,0,0,0,5.195,5.195h93.5a5.21,5.21,0,0,0,5.195-5.195v-98.7A5.21,5.21,0,0,0,112.7,17.5Z" transform="translate(-14 -14.905)" fill="#656d78"/>
      <g id="Group_48" data-name="Group 48" transform="translate(10.389 12.984)">
        <path id="Path_116" data-name="Path 116" d="M43.195,21.5A5.195,5.195,0,1,1,38,26.695,5.21,5.21,0,0,1,43.195,21.5Z" transform="translate(13.946 -21.5)" fill="#ccd1d9"/>
        <path id="Path_117" data-name="Path 117" d="M51.195,21.5A5.195,5.195,0,1,1,46,26.695,5.21,5.21,0,0,1,51.195,21.5Z" transform="translate(26.724 -21.5)" fill="#ccd1d9"/>
        <path id="Path_118" data-name="Path 118" d="M23.195,21.5A5.195,5.195,0,1,1,18,26.695,5.21,5.21,0,0,1,23.195,21.5Z" transform="translate(-18 -21.5)" fill="#ccd1d9"/>
        <path id="Path_119" data-name="Path 119" d="M31.195,21.5A5.195,5.195,0,1,1,26,26.695,5.21,5.21,0,0,1,31.195,21.5Z" transform="translate(-5.222 -21.5)" fill="#ccd1d9"/>
      </g>
      <path id="Path_120" data-name="Path 120" d="M98.516,31.5a2.6,2.6,0,0,1,2.6,2.6v57.14a2.6,2.6,0,0,1-2.6,2.6H20.6a2.6,2.6,0,0,1-2.6-2.6V34.1a2.6,2.6,0,0,1,2.6-2.6Z" transform="translate(-7.611 7.457)" fill="#5d9cec"/>
      <path id="Path_121" data-name="Path 121" d="M43.212,92.237H30.22L38.02,32.5H51.011Z" transform="translate(-17.054 9.054)" fill="#87bcf4"/>
      <path id="Path_127" data-name="Path 127" d="M102.71,29.5a2.6,2.6,0,0,1,2.6,2.6v2.6a2.6,2.6,0,0,1-2.6,2.6H19.6a2.6,2.6,0,0,1-2.6-2.6V32.1a2.6,2.6,0,0,1,2.6-2.6Z" transform="translate(-9.208 4.262)" fill="#aab2bd"/>
    </g>
    <g id="Ellipse_47" data-name="Ellipse 47" transform="translate(1071 34.501)" fill="red" stroke="#acacac" stroke-width="1">
      <ellipse cx="4.5" cy="3.5" rx="4.5" ry="3.5" stroke="none"/>
      <ellipse cx="4.5" cy="3.5" rx="4" ry="3" fill="none"/>
    </g>
    <g id="fuego" transform="translate(1056.717 66.932)" opacity="0.75">
      <path id="Path_289" data-name="Path 289" d="M47.9,22.862a19.212,19.212,0,0,0,5.734,5.024S50.821,4.126,69.138,0c-4.693,17.224,5.97,22.082,9.856,12.982,6.491,8.666,1.563,16.227,1.563,16.227,2.662.383,4.9-2.524,4.9-2.524.02.358.031.719.031,1.082a19.112,19.112,0,1,1-37.587-4.9Z" transform="translate(-47.262 0)" fill="#ff6536"/>
      <path id="Path_290" data-name="Path 290" d="M275.081,26.684s-2.236,2.908-4.9,2.524c0,0,4.928-7.561-1.563-16.227-3.887,9.1-14.549,4.242-9.856-12.982A20.548,20.548,0,0,0,256,.826V46.878a19.112,19.112,0,0,0,19.112-19.112C275.112,27.4,275.1,27.043,275.081,26.684Z" transform="translate(-236.888 0)" fill="#ff421d"/>
      <path id="Path_291" data-name="Path 291" d="M164.456,287.587a8.382,8.382,0,1,0,13.979-6.239c-3.241,4.4-7.859-2.276-4.26-7.153C174.176,274.2,164.456,275.414,164.456,287.587Z" transform="translate(-153.726 -249.091)" fill="#fbbf00"/>
      <path id="Path_292" data-name="Path 292" d="M264.382,287.587a8.36,8.36,0,0,0-2.784-6.239c-3.241,4.4-7.859-2.276-4.26-7.153a8.433,8.433,0,0,0-1.338.322v21.451A8.382,8.382,0,0,0,264.382,287.587Z" transform="translate(-236.888 -249.091)" fill="#ffa900"/>
    </g>
  </g>
</svg>
