<svg xmlns="http://www.w3.org/2000/svg" width="49.113" height="92.453" viewBox="0 0 49.113 92.453">
  <g id="altavoz" transform="translate(-31.877)">
    <path id="Path_192" data-name="Path 192" d="M189.283,138.755H149.038a4.434,4.434,0,0,1-4.434-4.434V50.736a4.434,4.434,0,0,1,4.434-4.434h40.245a4.434,4.434,0,0,1,4.434,4.434v83.585A4.433,4.433,0,0,1,189.283,138.755Z" transform="translate(-112.727 -46.302)" fill="#979797"/>
    <path id="Path_193" data-name="Path 193" d="M317.93,46.3h-8.3a4.434,4.434,0,0,1,4.434,4.434v83.585a4.434,4.434,0,0,1-4.434,4.434h8.3a4.434,4.434,0,0,0,4.434-4.434V50.736A4.434,4.434,0,0,0,317.93,46.3Z" transform="translate(-241.374 -46.302)" fill="#767474"/>
    <circle id="Ellipse_12" data-name="Ellipse 12" cx="18.819" cy="18.819" r="18.819" transform="translate(37.614 44.765)" fill="#ffb427"/>
    <path id="Path_194" data-name="Path 194" d="M274.818,268.187A18.818,18.818,0,0,0,256,249.369v37.637A18.819,18.819,0,0,0,274.818,268.187Z" transform="translate(-199.566 -204.604)" fill="#ff9d00"/>
    <circle id="Ellipse_13" data-name="Ellipse 13" cx="12.437" cy="12.437" r="12.437" transform="translate(43.996 51.147)" fill="#d96b37"/>
    <circle id="Ellipse_14" data-name="Ellipse 14" cx="11.674" cy="11.674" r="11.674" transform="translate(44.759 9.211)" fill="#ffb427"/>
    <path id="Path_195" data-name="Path 195" d="M267.674,99.763A11.674,11.674,0,0,0,256,88.089v23.347A11.674,11.674,0,0,0,267.674,99.763Z" transform="translate(-199.566 -78.877)" fill="#ff9d00"/>
    <circle id="Ellipse_15" data-name="Ellipse 15" cx="6.276" cy="6.276" r="6.276" transform="translate(50.157 14.609)" fill="#d96b37"/>
  </g>
</svg>
