<svg id="altavoz" xmlns="http://www.w3.org/2000/svg" width="112.867" height="92.453" viewBox="0 0 112.867 92.453">
  <path id="Path_192" data-name="Path 192" d="M189.283,138.755H149.038a4.434,4.434,0,0,1-4.434-4.434V50.736a4.434,4.434,0,0,1,4.434-4.434h40.245a4.434,4.434,0,0,1,4.434,4.434v83.585A4.433,4.433,0,0,1,189.283,138.755Z" transform="translate(-112.727 -46.302)" fill="#979797"/>
  <path id="Path_193" data-name="Path 193" d="M317.93,46.3h-8.3a4.434,4.434,0,0,1,4.434,4.434v83.585a4.434,4.434,0,0,1-4.434,4.434h8.3a4.434,4.434,0,0,0,4.434-4.434V50.736A4.434,4.434,0,0,0,317.93,46.3Z" transform="translate(-241.374 -46.302)" fill="#767474"/>
  <circle id="Ellipse_12" data-name="Ellipse 12" cx="18.819" cy="18.819" r="18.819" transform="translate(37.614 44.765)" fill="#ffb427"/>
  <path id="Path_194" data-name="Path 194" d="M274.818,268.187A18.818,18.818,0,0,0,256,249.369v37.637A18.819,18.819,0,0,0,274.818,268.187Z" transform="translate(-199.566 -204.604)" fill="#ff9d00"/>
  <circle id="Ellipse_13" data-name="Ellipse 13" cx="12.437" cy="12.437" r="12.437" transform="translate(43.996 51.147)" fill="#d96b37"/>
  <circle id="Ellipse_14" data-name="Ellipse 14" cx="11.674" cy="11.674" r="11.674" transform="translate(44.759 9.211)" fill="#ffb427"/>
  <path id="Path_195" data-name="Path 195" d="M267.674,99.763A11.674,11.674,0,0,0,256,88.089v23.347A11.674,11.674,0,0,0,267.674,99.763Z" transform="translate(-199.566 -78.877)" fill="#ff9d00"/>
  <circle id="Ellipse_15" data-name="Ellipse 15" cx="6.276" cy="6.276" r="6.276" transform="translate(50.157 14.609)" fill="#d96b37"/>
  <path id="Path_196" data-name="Path 196" d="M443.069,191.29a3.4,3.4,0,0,1-2.4-5.806,27.9,27.9,0,0,0,0-39.415,3.4,3.4,0,0,1,4.81-4.81,34.712,34.712,0,0,1,0,49.034A3.39,3.39,0,0,1,443.069,191.29Z" transform="translate(-342.746 -119.55)" fill="#ffb427"/>
  <path id="Path_197" data-name="Path 197" d="M450.991,141.262a3.4,3.4,0,0,0-4.246-.454,3.41,3.41,0,0,1,.564.454,34.712,34.712,0,0,1,0,49.034,3.4,3.4,0,0,1-.564.454,3.4,3.4,0,0,0,4.246-.454A34.712,34.712,0,0,0,450.991,141.262Z" transform="translate(-348.263 -119.553)" fill="#ff9d00"/>
  <path id="Path_198" data-name="Path 198" d="M402.743,208.244a3.4,3.4,0,0,1-2.4-5.806,18.438,18.438,0,0,0,0-26.046,3.4,3.4,0,0,1,4.81-4.81,25.247,25.247,0,0,1,0,35.665A3.39,3.39,0,0,1,402.743,208.244Z" transform="translate(-311.31 -143.189)" fill="#ffb427"/>
  <path id="Path_199" data-name="Path 199" d="M409.586,171.583a3.4,3.4,0,0,0-4.55-.234,3.451,3.451,0,0,1,.259.234,25.247,25.247,0,0,1,0,35.665,3.461,3.461,0,0,1-.259.234,3.4,3.4,0,0,0,4.55-.234A25.247,25.247,0,0,0,409.586,171.583Z" transform="translate(-315.749 -143.19)" fill="#ff9d00"/>
  <path id="Path_200" data-name="Path 200" d="M12.543,191.29a3.4,3.4,0,0,0,2.4-5.806,27.9,27.9,0,0,1,0-39.415,3.4,3.4,0,1,0-4.81-4.81,34.712,34.712,0,0,0,0,49.034A3.39,3.39,0,0,0,12.543,191.29Z" transform="translate(0.001 -119.55)" fill="#ffb427"/>
  <path id="Path_201" data-name="Path 201" d="M26.58,147.988a3.4,3.4,0,0,0-.564-5.264,4.161,4.161,0,0,0-.564.454c-14.556,13.5-13.519,35.516,0,49.034a3.4,3.4,0,0,0,.564.454,3.4,3.4,0,0,0,.564-5.263A27.9,27.9,0,0,1,26.58,147.988Z" transform="translate(-11.631 -121.468)" fill="#ff9d00"/>
  <path id="Path_202" data-name="Path 202" d="M62.645,208.244a3.4,3.4,0,0,0,2.4-5.806,18.438,18.438,0,0,1,0-26.046,3.4,3.4,0,0,0-4.81-4.81,25.247,25.247,0,0,0,0,35.665A3.39,3.39,0,0,0,62.645,208.244Z" transform="translate(-41.212 -143.189)" fill="#ffb427"/>
  <path id="Path_203" data-name="Path 203" d="M77.741,179.082a3.4,3.4,0,0,0,0-4.81,3.443,3.443,0,0,0-.261-.236h0c-.09.073-.174.153-.259.234-11.666,11-9.833,25.832,0,35.665a3.439,3.439,0,0,0,.259.234,3.442,3.442,0,0,0,.259-.234,3.4,3.4,0,0,0,0-4.81A18.439,18.439,0,0,1,77.741,179.082Z" transform="translate(-53.903 -145.879)" fill="#ff9d00"/>
</svg>
