<svg xmlns="http://www.w3.org/2000/svg" xmlns:xlink="http://www.w3.org/1999/xlink" version="1.1" width="24" height="24" enable-background="new 0 0 24 24" xml:space="preserve"><rect id="backgroundrect" width="100%" height="100%" x="0" y="0" fill="none" stroke="none"/>


<g class="currentLayer" style=""><title>Layer 1</title><g id="Bounding_Box">
	<rect fill="none" width="24" height="24" id="svg_1"/>
</g><g id="Master" class="selected" fill="#ffffff" fill-opacity="1">
	<g id="ui_x5F_spec_x5F_header_copy" fill="#ffffff" fill-opacity="1">
	</g>
	<g id="svg_2" fill="#ffffff" fill-opacity="1">
		<path d="M12,3c-0.46,0-0.93,0.04-1.4,0.14C7.84,3.67,5.64,5.9,5.12,8.66c-0.48,2.61,0.48,5.01,2.22,6.56    C7.77,15.6,8,16.13,8,16.69V19c0,1.1,0.9,2,2,2h0.28c0.35,0.6,0.98,1,1.72,1s1.38-0.4,1.72-1H14c1.1,0,2-0.9,2-2v-2.31    c0-0.55,0.22-1.09,0.64-1.46C18.09,13.95,19,12.08,19,10C19,6.13,15.87,3,12,3z M14,17h-4v-1h4V17z M10,19v-1h4v1H10z     M15.31,13.74c-0.09,0.08-0.16,0.18-0.24,0.26H8.92c-0.08-0.09-0.15-0.19-0.24-0.27c-1.32-1.18-1.91-2.94-1.59-4.7    c0.36-1.94,1.96-3.55,3.89-3.93C11.32,5.03,11.66,5,12,5c2.76,0,5,2.24,5,5C17,11.43,16.39,12.79,15.31,13.74z" id="svg_3" fill="#ffffff" fill-opacity="1"/>
	</g>
	<g id="svg_4" fill="#ffffff" fill-opacity="1">
		<rect x="11.5" y="11" width="1" height="3" id="svg_5" fill="#ffffff" fill-opacity="1"/>
		<rect x="10.59000015258789" y="8.789999961853027" transform="matrix(0.7071 -0.7071 0.7071 0.7071 -4.0312 10.8536)" width="1" height="3" id="svg_6" fill="#ffffff" fill-opacity="1"/>
		<rect x="12.40999984741211" y="8.789999961853027" transform="matrix(-0.7071 -0.7071 0.7071 -0.7071 14.7678 26.7028)" width="1" height="3" id="svg_7" fill="#ffffff" fill-opacity="1"/>
	</g>
</g></g></svg>