<svg id="Group_155" data-name="Group 155" xmlns="http://www.w3.org/2000/svg" width="101.388" height="101.388" viewBox="0 0 101.388 101.388">
  <g id="aspiradora_1_" data-name="aspiradora (1)">
    <path id="Path_298" data-name="Path 298" d="M129.664,20.792a2.97,2.97,0,0,1-5.941,0A14.858,14.858,0,0,0,108.872,5.941H96.99a15.028,15.028,0,0,0-15.05,14.852V56.635a2.97,2.97,0,1,1-5.941,0V20.792a20.3,20.3,0,0,1,2.97-10.634A21.07,21.07,0,0,1,96.99,0h11.881A20.816,20.816,0,0,1,129.664,20.792Zm0,0" transform="translate(-60.95)" fill="#4a696f"/>
    <path id="Path_299" data-name="Path 299" d="M141.694,20.793a2.97,2.97,0,1,1-5.941,0A14.858,14.858,0,0,0,120.9,5.941H109.02A15.028,15.028,0,0,0,93.97,20.793V56.635A2.941,2.941,0,0,1,91,59.605V10.159A21.07,21.07,0,0,1,109.02,0H120.9a20.816,20.816,0,0,1,20.792,20.792Zm0,0" transform="translate(-72.98 0)" fill="#3e5959"/>
    <path id="Path_300" data-name="Path 300" d="M313.881,107.822H302V95.941a5.941,5.941,0,1,1,11.881,0Zm0,0" transform="translate(-242.197 -72.178)" fill="#384949"/>
    <path id="Path_301" data-name="Path 301" d="M319.526,191.981v20.792a8.9,8.9,0,0,1-8.911,8.911h-29.7a2.941,2.941,0,0,1-2.97-2.97L272,196.555V158.911A8.9,8.9,0,0,1,280.911,150h8.911Zm0,0" transform="translate(-218.138 -120.296)" fill="#bcbcbc"/>
    <path id="Path_302" data-name="Path 302" d="M391.7,191.981v20.793a8.9,8.9,0,0,1-8.911,8.911H362V150Zm0,0" transform="translate(-290.315 -120.296)" fill="#0072a2"/>
    <path id="Path_303" data-name="Path 303" d="M364.97,150H362v32.872a9.093,9.093,0,0,0,8.911,9.109H391.7v-15.05A26.933,26.933,0,0,0,364.97,150Zm0,0" transform="translate(-290.315 -120.296)" fill="#384949"/>
    <path id="Path_304" data-name="Path 304" d="M72.881,276.941v35.842H61V276.941a5.941,5.941,0,0,1,11.881,0Zm0,0" transform="translate(-48.921 -243.425)" fill="#0072a2"/>
    <path id="Path_305" data-name="Path 305" d="M256.852,362A14.852,14.852,0,1,0,271.7,376.852,14.858,14.858,0,0,0,256.852,362Zm0,0" transform="translate(-194.078 -290.315)" fill="#3e5959"/>
    <path id="Path_306" data-name="Path 306" d="M331.852,376.852A14.858,14.858,0,0,1,317,391.7V362A14.858,14.858,0,0,1,331.852,376.852Zm0,0" transform="translate(-254.227 -290.315)" fill="#384949"/>
    <path id="Path_307" data-name="Path 307" d="M280.911,392a8.911,8.911,0,1,0,8.911,8.911A8.9,8.9,0,0,0,280.911,392Zm0,0" transform="translate(-218.138 -314.375)" fill="#deecf1"/>
    <path id="Path_308" data-name="Path 308" d="M325.911,400.911A8.9,8.9,0,0,1,317,409.822V392A8.9,8.9,0,0,1,325.911,400.911Zm0,0" transform="translate(-254.227 -314.375)" fill="#c6e2e7"/>
    <path id="Path_309" data-name="Path 309" d="M307.941,424.97a2.97,2.97,0,1,1-2.97-2.97A2.941,2.941,0,0,1,307.941,424.97Zm0,0" transform="translate(-242.197 -338.434)" fill="#3e5959"/>
    <path id="Path_310" data-name="Path 310" d="M319.97,424.97a2.941,2.941,0,0,1-2.97,2.97V422A2.941,2.941,0,0,1,319.97,424.97Zm0,0" transform="translate(-254.227 -338.434)" fill="#384949"/>
    <path id="Path_311" data-name="Path 311" d="M96.941,276.941v35.842H91V271A5.958,5.958,0,0,1,96.941,276.941Zm0,0" transform="translate(-72.98 -243.425)" fill="#0d5e80"/>
    <path id="Path_312" data-name="Path 312" d="M36.04,457.941v2.97a2.941,2.941,0,0,1-2.97,2.97H2.97A2.941,2.941,0,0,1,0,460.911v-2.97A5.958,5.958,0,0,1,5.941,452H30.1A5.958,5.958,0,0,1,36.04,457.941Zm0,0" transform="translate(0 -388.582)" fill="#4a696f"/>
    <path id="Path_313" data-name="Path 313" d="M109.02,457.941v2.97a2.941,2.941,0,0,1-2.97,2.97H91V452h12.079A5.958,5.958,0,0,1,109.02,457.941Zm0,0" transform="translate(-72.98 -388.582)" fill="#3e5959"/>
  </g>
  <g id="Ellipse_44" data-name="Ellipse 44" transform="translate(78.075 58.947)" fill="red" stroke="#acacac" stroke-width="1">
    <circle cx="4.145" cy="4.145" r="4.145" stroke="none"/>
    <circle cx="4.145" cy="4.145" r="3.645" fill="none"/>
  </g>
</svg>
