<svg xmlns="http://www.w3.org/2000/svg" width="24" height="24" style=""><rect id="backgroundrect" width="100%" height="100%" x="0" y="0" fill="none" stroke="none" class="" style=""/><g class="currentLayer" style=""><title>Layer 1</title><path fill="none" d="M 0 0 h 24 v 24 H 0 V 0 Z" id="svg_1" class=""/><path d="M 15.5 14 h -0.79 l -0.28 -0.27 C 15.41 12.59 16 11.11 16 9.5 C 16 5.91 13.09 3 9.5 3 S 3 5.91 3 9.5 S 5.91 16 9.5 16 c 1.61 0 3.09 -0.59 4.23 -1.57 l 0.27 0.28 v 0.79 l 5 4.99 L 20.49 19 l -4.99 -5 Z m -6 0 C 7.01 14 5 11.99 5 9.5 S 7.01 5 9.5 5 S 14 7.01 14 9.5 S 11.99 14 9.5 14 Z" id="svg_2" class="" stroke="#ffffff" stroke-opacity="1" fill="#ffffff" fill-opacity="1" transform="" opacity="1" stroke-width="0"/></g></svg>